<svg width="12" height="15" viewBox="0 0 12 15" fill="none" xmlns="http://www.w3.org/2000/svg">
<path d="M6.68139 1L6.68139 0.318615L5.31861 0.318615L5.31861 1L6.68139 1ZM5.51819 14.4818C5.78429 14.7479 6.21572 14.7479 6.48181 14.4818L10.8181 10.1455C11.0842 9.87941 11.0842 9.44798 10.8181 9.18188C10.552 8.91578 10.1206 8.91578 9.8545 9.18188L6 13.0364L2.1455 9.18188C1.87941 8.91578 1.44798 8.91578 1.18188 9.18188C0.915782 9.44798 0.915782 9.87941 1.18188 10.1455L5.51819 14.4818ZM5.31861 1L5.31862 14L6.68139 14L6.68139 1L5.31861 1Z" fill="white"/>
</svg>
